<svg width="432" height="131" viewBox="0 0 432 131" fill="none" xmlns="http://www.w3.org/2000/svg">
<g clip-path="url(#clip0_41_10)">
<path d="M61.9898 4.37762C103.394 1.84778 135.869 42.2399 124.371 82.1317C110.161 131.427 46.5434 142.683 16.1158 101.637C-12.6441 62.8481 14.102 7.3054 61.9898 4.37762Z" fill="#F1F0EE" stroke="#518FBB" stroke-width="15" stroke-linecap="round" stroke-linejoin="round"/>
<path d="M61.8594 10.6198C109.662 7.783 138.496 63.5019 107.399 100.727C82.4905 130.545 35.4366 125.798 17.0972 91.6257C-1.73577 56.5321 22.2819 12.9677 61.8594 10.6198Z" fill="url(#paint0_linear_41_10)"/>
<path d="M45.772 31.1597C51.0475 30.3638 55.7557 32.3706 59.7832 35.5827C65.0303 39.7612 69.1203 48.3854 77.3001 44.5537C71.8715 45.5485 68.1616 40.5116 65.1041 36.7538C73.4825 34.0989 84.839 27.0552 92.3494 35.1961C102.418 46.1114 90.7157 59.4996 87.9362 69.7838C85.3608 79.3233 86.6996 92.7172 81.4468 101.25C79.5238 104.377 75.1502 107.515 74.1802 101.768C73.2102 96.0202 75.4282 79.5563 66.5279 78.7548C55.5969 77.7656 57.7808 92.5466 57.0547 99.1697C56.1358 107.538 51.3254 105.872 48.4891 99.687C44.2517 90.4432 45.6869 78.5956 42.7825 68.9993C40.4852 61.4098 35.0111 55.7475 34.7388 47.1574C34.529 40.54 38.6529 32.2342 45.7663 31.1654L45.772 31.1597Z" fill="#F1F0EE"/>
<path d="M47.5872 33.7633C51.87 33.1834 56.8676 35.935 59.6528 39.0958C60.5831 40.1533 63.9129 44.1441 60.8213 43.9054C57.4065 43.6439 53.1974 34.9856 45.772 36.8844C44.5524 37.197 39.7534 41.3414 42.0111 37.2766C42.7656 35.9122 46.05 33.9736 47.5872 33.7633Z" fill="#B4EAF7"/>
<path d="M81.061 34.281C87.6752 33.5249 93.5349 38.9086 91.5722 45.5942C90.1825 50.3241 87.766 41.7738 87.4199 41.1712C84.7595 36.572 81.2879 37.294 77.0391 35.9694C76.9824 35.3952 80.5164 34.3435 81.061 34.281Z" fill="#5169A7"/>
<path d="M164.873 55.7813C164.153 55.7813 163.432 55.7642 162.74 55.7358C160.375 55.6335 158.384 55.3038 156.648 54.7409C152.643 53.4163 150.436 50.6761 150.436 47.015C150.436 44.1043 151.747 41.8132 154.231 40.3806C156.33 39.1526 159.076 38.5557 162.616 38.5557C164.794 38.5557 167.142 38.7831 169.604 39.2265C167.431 36.3613 165.752 33.7916 164.629 32.0236C161.333 32.9389 158.304 33.405 155.621 33.405C153.704 33.405 150.919 33.0924 149.376 32.2055C148.948 31.9602 148.634 31.5557 148.502 31.0799C148.437 30.844 148.421 30.5975 148.454 30.3551C148.487 30.1128 148.569 29.8797 148.695 29.67C149.052 29.0617 149.693 28.6865 150.374 28.6865C150.669 28.6865 150.953 28.7547 151.214 28.8968C152.133 29.3971 154.146 29.6245 155.627 29.6245C157.794 29.6245 160.148 29.3118 162.638 28.6978C161.526 26.7251 160.749 25.2129 160.267 24.0816C159.751 22.7684 159.49 22.0123 159.399 21.2789C159.348 20.7616 159.49 20.267 159.802 19.8747C159.957 19.6787 160.15 19.5158 160.37 19.3957C160.589 19.2756 160.83 19.2007 161.078 19.1754C161.146 19.1697 161.22 19.1641 161.288 19.1641C162.292 19.1641 163.126 19.8747 163.217 20.8127C163.217 21.5916 164.561 24.4739 166.359 27.595C168.651 26.8047 171.011 25.8383 173.552 24.6444C173.824 24.525 174.108 24.4625 174.392 24.4625C175.118 24.4625 175.742 24.8605 176.025 25.5029C176.457 26.4807 176.054 27.6063 175.124 28.0213C172.962 29.0674 170.744 29.9997 168.35 30.8582C170.455 34.1668 173.025 37.6574 175.98 41.2447C176.508 41.9326 176.547 42.8763 176.082 43.5528C175.747 44.036 175.18 44.326 174.568 44.326C174.329 44.326 174.091 44.2805 173.876 44.1952C173.047 43.8882 172.151 43.6665 171.283 43.4505C168.35 42.7171 165.435 42.3419 162.616 42.3419C160.471 42.3419 158.645 42.5977 157.323 43.081C155.945 43.5756 154.3 44.6557 154.3 47.0093C154.3 48.5897 155.06 49.7836 156.552 50.5511C158.134 51.364 160.522 51.9041 162.939 51.9951C163.597 52.0235 164.266 52.0406 164.936 52.0406C167.176 52.0406 169.451 51.8814 171.89 51.5516C171.981 51.5403 172.077 51.5289 172.168 51.5289C173.081 51.5289 173.847 52.2225 173.989 53.1719C174.063 53.6778 173.944 54.1724 173.649 54.5647C173.359 54.9513 172.917 55.2071 172.412 55.281C169.831 55.6107 167.295 55.7756 164.868 55.7756L164.873 55.7813Z" fill="white"/>
<path d="M161.282 19.4482C162.105 19.4482 162.848 20.011 162.927 20.841C162.927 21.7336 164.487 24.9513 166.223 27.9416C168.453 27.1798 170.903 26.202 173.666 24.9058C173.898 24.8035 174.148 24.7523 174.386 24.7523C174.965 24.7523 175.509 25.0536 175.764 25.6221C176.122 26.4237 175.81 27.4072 175.004 27.7654C172.418 29.0161 170.058 29.9541 167.919 30.7102C169.837 33.746 172.378 37.3219 175.764 41.4265C176.213 42.0064 176.252 42.8136 175.855 43.3935C175.566 43.8085 175.072 44.0416 174.573 44.0416C174.375 44.0416 174.176 44.0075 173.983 43.9279C173.138 43.6152 172.247 43.3935 171.357 43.1661C168.504 42.4498 165.565 42.0518 162.621 42.0518C160.392 42.0518 158.565 42.319 157.232 42.8136C155.36 43.4845 154.021 44.8204 154.021 47.0092C154.021 48.7943 154.957 50.045 156.427 50.8068C158.077 51.6538 160.483 52.1939 162.933 52.2792C163.602 52.3076 164.272 52.3247 164.941 52.3247C167.284 52.3247 169.61 52.1484 171.935 51.8358C172.015 51.8244 172.094 51.8187 172.174 51.8187C172.957 51.8187 173.598 52.4099 173.717 53.2229C173.853 54.1155 173.269 54.8772 172.378 55.008C169.916 55.3207 167.369 55.4969 164.873 55.4969C164.164 55.4969 163.455 55.4799 162.752 55.4514C160.743 55.3605 158.65 55.0933 156.739 54.4679C153.216 53.3082 150.726 50.8977 150.726 47.0092C150.726 44.2406 151.974 42.0064 154.379 40.6249C156.517 39.3742 159.325 38.8398 162.621 38.8398C165.208 38.8398 167.789 39.1525 170.285 39.6414C168.01 36.6965 166.229 34.0132 164.76 31.6937C160.97 32.7682 157.941 33.1207 155.627 33.1207C153.931 33.1207 151.083 32.8535 149.523 31.9609C148.763 31.5118 148.496 30.5738 148.945 29.8177C149.257 29.2833 149.812 28.9706 150.374 28.9706C150.612 28.9706 150.856 29.0274 151.083 29.1468C152.155 29.7267 154.379 29.9086 155.627 29.9086C157.453 29.9086 159.949 29.6869 163.069 28.8796C161.957 26.9126 161.061 25.2185 160.528 23.9678C160.04 22.7171 159.768 21.9553 159.683 21.2446C159.592 20.3521 160.216 19.5505 161.107 19.4595C161.169 19.4539 161.226 19.4482 161.288 19.4482M161.282 18.8797C161.203 18.8797 161.124 18.8797 161.044 18.891C160.46 18.9479 159.938 19.2378 159.575 19.6926C159.218 20.1474 159.053 20.7159 159.11 21.2958C159.206 22.0747 159.473 22.8421 159.995 24.1724C160.46 25.264 161.186 26.6795 162.201 28.5044C159.87 29.0559 157.658 29.3344 155.621 29.3344C154.129 29.3344 152.184 29.0957 151.344 28.6465C151.038 28.4817 150.709 28.4021 150.368 28.4021C149.591 28.4021 148.854 28.8342 148.445 29.5277C148.15 30.028 148.077 30.6022 148.224 31.1536C148.372 31.6937 148.729 32.1542 149.223 32.4498C150.822 33.3651 153.664 33.6892 155.615 33.6892C158.265 33.6892 161.254 33.24 164.499 32.3532C165.542 33.9962 167.04 36.2702 168.946 38.8227C166.728 38.4532 164.601 38.2713 162.615 38.2713C159.019 38.2713 156.234 38.8796 154.084 40.136C151.509 41.6141 150.147 43.9961 150.147 47.0149C150.147 50.8125 152.422 53.6493 156.551 55.0137C158.31 55.5879 160.329 55.9176 162.718 56.0256C163.415 56.054 164.136 56.0711 164.862 56.0711C167.301 56.0711 169.854 55.9062 172.44 55.5765C173.036 55.4855 173.541 55.1956 173.875 54.7465C174.216 54.2917 174.358 53.7232 174.267 53.1433C174.102 52.0518 173.217 51.2559 172.162 51.2559C172.055 51.2559 171.947 51.2616 171.839 51.2786C169.423 51.6027 167.159 51.7619 164.93 51.7619C164.266 51.7619 163.602 51.7448 162.95 51.7164C160.573 51.6311 158.231 51.1024 156.676 50.3065C155.286 49.5902 154.577 48.4816 154.577 47.0149C154.577 45.2582 155.53 44.0245 157.408 43.3537C158.701 42.8762 160.5 42.626 162.61 42.626C165.401 42.626 168.294 42.9955 171.204 43.7232C172.066 43.9393 172.957 44.161 173.773 44.4623C174.012 44.5589 174.284 44.6101 174.556 44.6101C175.265 44.6101 175.918 44.2747 176.303 43.7175C176.837 42.9444 176.797 41.8585 176.196 41.0854C173.32 37.6005 170.829 34.2179 168.765 31.0058C171.034 30.1758 173.161 29.2833 175.237 28.277C176.292 27.8052 176.763 26.509 176.269 25.389C175.94 24.6443 175.214 24.1838 174.375 24.1838C174.051 24.1838 173.728 24.252 173.427 24.3885C170.965 25.5425 168.685 26.4806 166.473 27.2537C164.624 24.0133 163.483 21.4323 163.483 20.841V20.7842C163.376 19.6983 162.423 18.8797 161.271 18.8797H161.282ZM199.334 55.514C198.313 55.514 197.445 54.6896 197.445 53.7118C197.434 53.2911 197.326 49.5163 197.275 44.1098C196.917 44.4623 196.566 44.8091 196.214 45.1615C194.643 46.7192 193.162 48.186 191.682 49.5049C191.33 49.8119 190.876 49.9824 190.411 49.9824C189.866 49.9824 189.356 49.7494 189.004 49.3457C188.301 48.5328 188.358 47.3332 189.123 46.6681C191.08 44.8887 193.27 42.734 195.397 40.6476C196.035 39.0288 196.644 37.3988 197.224 35.7585C197.224 35.1957 197.212 34.6329 197.201 34.0701C197.19 33.6266 197.184 33.1889 197.178 32.7454C195.857 33.2798 194.336 33.7801 192.646 34.3316C192.453 34.3941 192.26 34.4225 192.062 34.4225C191.245 34.4225 190.53 33.8995 190.286 33.1207C190.133 32.6374 190.173 32.1372 190.4 31.7051C190.627 31.273 191.012 30.9547 191.494 30.8012C193.616 30.1417 195.573 29.4197 197.178 28.7034V26.6738C197.173 24.5078 197.161 22.4669 197.229 20.6591C197.28 19.6017 198.097 18.7773 199.084 18.7773H199.175C200.242 18.8342 201.098 19.7495 201.047 20.7728C201.036 21.3299 201.019 21.9155 201.002 22.5124C200.962 23.8825 200.922 25.2924 200.917 26.7932C201.285 26.5999 201.66 26.4578 202.057 26.4578C202.454 26.4578 202.817 26.5943 203.169 26.8728C203.787 27.3902 204.014 28.2315 203.747 28.9763L201.518 34.8887C204.672 32.1713 208.609 29.2776 212.534 28.7773C212.994 28.7205 213.459 28.6863 213.918 28.6863C219.891 28.6863 224.747 33.5413 224.747 39.5049C224.747 46.8727 220.396 51.7107 211.439 54.2917C211.275 54.3429 211.093 54.3713 210.912 54.3713C210.095 54.3713 209.34 53.8028 209.085 52.9898C208.779 52.012 209.357 50.9489 210.384 50.6248C217.259 48.618 220.748 44.8773 220.748 39.5106C220.748 35.6732 217.651 32.5522 213.844 32.5522C213.566 32.5522 213.277 32.5692 212.999 32.6033C208.898 33.0979 203.39 38.2372 200.951 40.5282C200.99 46.1166 201.109 51.0228 201.161 53.1206L201.172 53.6152C201.172 54.684 200.361 55.514 199.328 55.514H199.334Z" fill="white"/>
<path d="M199.079 19.0563H199.153C200.043 19.1017 200.803 19.8578 200.758 20.7561C200.713 22.7231 200.622 24.9118 200.622 27.2768C201.087 27.0039 201.558 26.7424 202.046 26.7424C202.346 26.7424 202.658 26.8391 202.982 27.1006C203.515 27.5497 203.696 28.2603 203.469 28.8857L200.843 35.8498C203.963 33.0812 208.331 29.5963 212.562 29.0619C213.016 29.0051 213.464 28.9766 213.913 28.9766C219.631 28.9766 224.458 33.627 224.458 39.511C224.458 48.084 218.485 51.9725 211.36 54.0248C211.212 54.0703 211.059 54.0931 210.912 54.0931C210.22 54.0931 209.573 53.6041 209.352 52.9049C209.085 52.0578 209.618 51.1653 210.464 50.8924C216.125 49.2381 221.026 45.9805 221.026 39.5053C221.026 35.5144 217.747 32.2626 213.845 32.2626C213.555 32.2626 213.26 32.2796 212.965 32.3194C208.864 32.8083 203.56 37.6804 200.667 40.4035C200.713 46.5206 200.843 51.7451 200.888 53.6212C200.888 54.5138 200.219 55.2301 199.328 55.2301C198.438 55.2301 197.723 54.5592 197.723 53.7122C197.678 52.1488 197.587 48.2659 197.547 43.4393C195.454 45.4916 193.446 47.5496 191.489 49.2892C191.177 49.5564 190.791 49.6929 190.405 49.6929C189.963 49.6929 189.526 49.5109 189.214 49.1528C188.636 48.4819 188.636 47.4586 189.305 46.8731C191.268 45.088 193.406 42.9902 195.636 40.8015C196.084 39.6872 196.929 37.453 197.507 35.7987C197.507 34.6389 197.462 33.4792 197.462 32.3137C196.084 32.8936 194.478 33.428 192.561 34.0534C192.397 34.1045 192.226 34.1329 192.062 34.1329C191.387 34.1329 190.769 33.7123 190.553 33.03C190.286 32.183 190.729 31.3359 191.58 31.063C194.03 30.3012 195.993 29.5451 197.462 28.8743C197.462 25.9295 197.417 23.0699 197.507 20.6594C197.553 19.7896 198.228 19.0506 199.079 19.0506M199.079 18.4878C197.939 18.4878 196.997 19.4315 196.94 20.6367C196.872 22.4559 196.884 24.5025 196.889 26.6685V28.5105C195.329 29.1983 193.44 29.8919 191.409 30.523C190.854 30.6992 190.405 31.0687 190.145 31.569C189.884 32.0693 189.838 32.6492 190.014 33.2063C190.298 34.1045 191.12 34.7071 192.062 34.7071C192.289 34.7071 192.51 34.673 192.731 34.6048C194.268 34.1045 195.664 33.6383 196.901 33.1608C196.901 33.4678 196.912 33.7691 196.918 34.0761C196.929 34.6219 196.94 35.1676 196.94 35.7077C196.401 37.2313 195.619 39.3177 195.153 40.4831C193.043 42.5525 190.871 44.6843 188.925 46.4581C188.051 47.2199 187.983 48.6013 188.789 49.528C189.192 49.9942 189.781 50.2614 190.411 50.2614C190.944 50.2614 191.461 50.0681 191.863 49.7156C193.355 48.391 194.841 46.9186 196.413 45.3609C196.606 45.1676 196.804 44.9743 196.997 44.781C197.054 49.8293 197.15 53.3142 197.161 53.7235C197.161 54.8378 198.154 55.7929 199.334 55.7929C200.514 55.7929 201.461 54.8378 201.461 53.6155L201.45 53.1039C201.399 51.0175 201.285 46.1738 201.24 40.6366C203.702 38.3228 209.074 33.3484 213.039 32.8709C213.311 32.8368 213.584 32.8197 213.85 32.8197C217.435 32.8197 220.47 35.8782 220.47 39.4939C220.47 44.7185 217.055 48.3682 210.316 50.3353C209.131 50.7105 208.467 51.9328 208.819 53.0641C209.114 53.9964 209.976 54.6445 210.917 54.6445C211.127 54.6445 211.337 54.6104 211.536 54.5479C220.612 51.9328 225.031 47.0038 225.031 39.4939C225.031 33.3712 220.045 28.3911 213.918 28.3911C213.447 28.3911 212.965 28.4195 212.494 28.482C208.841 28.9425 205.194 31.4326 202.165 33.951L204.008 29.0676C204.32 28.1978 204.054 27.2313 203.35 26.6458C202.936 26.3217 202.505 26.1569 202.051 26.1569C201.751 26.1569 201.473 26.2251 201.2 26.3274C201.212 24.9971 201.246 23.7294 201.285 22.5014C201.302 21.8988 201.319 21.3189 201.331 20.7504C201.388 19.585 200.406 18.5332 199.187 18.4707H199.084L199.079 18.4878ZM252.651 56.7764C251.851 56.7764 251.125 56.2647 250.847 55.5086C250.03 53.3824 247.63 47.4643 242.928 38.374L242.292 38.698C240.137 39.8009 237.913 40.9379 235.593 42.001C235.349 42.109 235.088 42.1659 234.822 42.1659C234.062 42.1659 233.381 41.7281 233.08 41.0573C232.876 40.5968 232.853 40.0908 233.018 39.6304C233.182 39.1585 233.528 38.789 233.982 38.5843C236.155 37.5894 238.327 36.4979 240.426 35.4462L241.192 35.0596C240.318 33.4507 239.36 31.7793 238.35 30.017L237.323 28.2205C236.807 27.3393 237.142 26.0886 238.049 25.5542C238.322 25.3951 238.639 25.3098 238.974 25.3098C239.683 25.3098 240.369 25.6907 240.715 26.2819C241.771 28.1068 242.724 29.8692 243.648 31.5747C243.971 32.1659 244.283 32.7515 244.601 33.3257C246.121 32.5241 247.613 31.7566 249.037 31.0403C253.7 28.6583 257.506 26.7765 260.507 26.0602C261.12 25.9124 261.755 25.8385 262.385 25.8385C264.637 25.8385 266.809 26.822 268.199 28.4707C269.487 29.9942 270.014 31.9499 269.674 33.9794C269.18 37.1062 266.9 39.5508 263.253 40.8526C261.392 41.5178 259.435 41.8077 258.221 41.8532H258.13C257.143 41.8532 256.326 41.0516 256.275 40.0226C256.253 39.5167 256.434 39.0391 256.786 38.6866C257.126 38.3455 257.591 38.1409 258.102 38.1181C258.862 38.0784 259.685 37.959 260.552 37.7657C262.748 37.2938 265.459 36.1568 265.947 33.3939C266.112 32.4388 265.885 31.5633 265.3 30.8641C264.625 30.0625 263.531 29.5849 262.373 29.5849C262.044 29.5849 261.71 29.6247 261.392 29.7043C259.293 30.2216 255.799 31.7452 250.716 34.3717L246.337 36.6514C251.204 46.0658 253.609 52.0521 254.42 54.2011C254.789 55.2016 254.296 56.3045 253.32 56.6684C253.11 56.748 252.889 56.7878 252.668 56.7878L252.651 56.7764ZM251.3 29.511C250.484 29.511 249.746 28.9766 249.508 28.2091C249.179 27.0949 248.22 25.7305 247.205 24.2865C246.876 23.8146 246.53 23.3314 246.201 22.8311C245.923 22.4275 245.815 21.9329 245.906 21.444C245.997 20.9551 246.269 20.5287 246.677 20.2501C246.978 20.0444 247.334 19.9353 247.698 19.9374C248.334 19.9374 248.946 20.2558 249.298 20.7731C249.61 21.2393 249.945 21.7112 250.291 22.1887C251.357 23.6725 252.463 25.2018 253.076 27.0551C253.394 28.0727 252.866 29.1074 251.868 29.4257C251.686 29.4883 251.499 29.5167 251.3 29.5167V29.511Z" fill="white"/>
<path d="M247.698 20.2216C248.226 20.2216 248.753 20.4775 249.065 20.9323C250.313 22.8083 252.004 24.7299 252.809 27.1403C253.076 27.9874 252.633 28.8799 251.783 29.1471C251.624 29.1983 251.465 29.2267 251.3 29.2267C250.637 29.2267 249.99 28.806 249.775 28.1238C249.326 26.6059 247.812 24.7299 246.433 22.6776C245.946 21.9613 246.121 20.9834 246.836 20.4888C247.097 20.3126 247.398 20.2273 247.698 20.2273M238.968 25.594C239.558 25.594 240.16 25.9067 240.46 26.424C241.929 28.9709 243.223 31.4268 244.471 33.7008C246.076 32.8538 247.636 32.0465 249.151 31.2904C253.694 28.9709 257.574 27.0494 260.558 26.333C261.165 26.1852 261.772 26.117 262.368 26.117C266.503 26.117 270.122 29.4769 269.379 33.9226C268.846 37.3165 266.259 39.4598 263.139 40.574C261.267 41.2449 259.35 41.5121 258.193 41.5575H258.113C257.257 41.5575 256.587 40.8583 256.542 39.9942C256.497 39.1016 257.211 38.4308 258.102 38.3853C258.947 38.3398 259.792 38.2091 260.598 38.0271C263.094 37.4928 265.72 36.1966 266.214 33.428C266.639 30.955 264.591 29.2836 262.362 29.2836C262.016 29.2836 261.664 29.3234 261.313 29.4086C258.953 29.9885 255.073 31.7736 250.574 34.0988L245.94 36.5092C250.087 44.5024 252.758 50.6195 254.137 54.2806C254.449 55.1277 254.046 56.0657 253.201 56.3784C253.019 56.4466 252.832 56.4807 252.645 56.4807C251.975 56.4807 251.352 56.06 251.108 55.4006C249.769 51.9157 247.142 45.8895 243.041 37.9817C240.591 39.2324 238.095 40.5286 235.468 41.7338C235.258 41.8304 235.032 41.8702 234.81 41.8702C234.192 41.8702 233.591 41.5177 233.324 40.9265C232.967 40.1249 233.279 39.1869 234.079 38.8287C236.62 37.669 239.161 36.3728 241.566 35.1676C240.364 32.9334 238.98 30.5684 237.556 28.067C237.108 27.3052 237.42 26.2364 238.18 25.7873C238.418 25.6452 238.685 25.5826 238.957 25.5826M247.698 19.6531C247.267 19.6531 246.859 19.7782 246.513 20.017C246.281 20.1763 246.084 20.3798 245.931 20.6157C245.778 20.8517 245.673 21.1156 245.622 21.3922C245.571 21.6688 245.574 21.9529 245.633 22.2281C245.691 22.5032 245.803 22.7642 245.963 22.9959C246.292 23.4905 246.638 23.9738 246.967 24.4513C247.971 25.8782 248.912 27.2199 249.224 28.283C249.468 29.0562 250.132 29.619 250.909 29.7611C250.257 30.0908 249.582 30.432 248.89 30.7844C247.486 31.4896 246.088 32.2078 244.698 32.939C244.431 32.4444 244.159 31.9442 243.881 31.4325C242.956 29.727 242.003 27.959 240.948 26.1341C240.551 25.4576 239.768 25.0198 238.963 25.0198C238.583 25.0198 238.214 25.1165 237.896 25.3041C236.858 25.9124 236.472 27.345 237.074 28.3569C237.414 28.9595 237.76 29.5565 238.095 30.1477C239.053 31.8134 239.961 33.3995 240.795 34.9288L240.29 35.1846C238.191 36.2364 236.024 37.3279 233.852 38.3228C233.33 38.5559 232.933 38.9879 232.74 39.5337C232.553 40.0624 232.581 40.6423 232.814 41.171C233.16 41.9498 233.942 42.4501 234.816 42.4501C235.121 42.451 235.422 42.387 235.701 42.2625C238.032 41.1937 240.262 40.051 242.417 38.9481L242.803 38.7491C247.415 47.686 249.775 53.4961 250.586 55.6052C250.743 56.0293 251.025 56.3953 251.395 56.6543C251.765 56.9133 252.205 57.0531 252.656 57.0549C252.911 57.0549 253.167 57.0094 253.411 56.9185C254.534 56.5035 255.101 55.2357 254.681 54.0873C253.876 51.9498 251.505 46.0373 246.717 36.7537L250.847 34.6048C255.907 31.9953 259.378 30.4717 261.46 29.9658C261.759 29.8923 262.066 29.856 262.373 29.8578C263.451 29.8578 264.461 30.3012 265.085 31.0402C265.618 31.6713 265.817 32.4672 265.669 33.337C265.21 35.9407 262.6 37.0266 260.496 37.4757C259.645 37.6633 258.834 37.7827 258.091 37.8225C257.512 37.8509 256.979 38.084 256.587 38.4763C256.173 38.8913 255.963 39.4427 255.992 40.0283C256.048 41.2108 256.99 42.1317 258.13 42.1317H258.238C258.828 42.109 260.966 41.9669 263.349 41.1141C267.099 39.7724 269.447 37.2483 269.958 34.0135C270.309 31.9101 269.759 29.8691 268.415 28.2773C266.968 26.5661 264.716 25.5485 262.385 25.5485C261.732 25.5485 261.08 25.6281 260.445 25.7816C258.408 26.2705 256.014 27.2824 253.24 28.6184C253.484 28.1295 253.547 27.544 253.365 26.9641C252.736 25.0653 251.618 23.5133 250.535 22.0124C250.183 21.5292 249.854 21.0687 249.553 20.6082C249.145 20.0113 248.441 19.6475 247.715 19.6475L247.698 19.6531Z" fill="white"/>
<path d="M300.482 46.0322C299.188 49.3807 297.316 52.371 294.781 54.2471C294.52 54.4404 293.272 54.5427 292.466 53.8889C291.638 53.2238 291.366 51.757 291.054 50.0799C291.042 50.0345 291.037 49.989 291.031 49.9662C290.833 48.869 290.736 48.3233 290.861 48.0845C291.15 47.5331 292.319 47.3398 292.909 47.7718C293.204 47.9879 293.204 48.2437 293.555 48.9657C293.845 49.5683 294.157 50.0288 294.372 50.3244C294.911 49.6251 295.558 48.6871 296.193 47.5217C296.613 46.7542 296.999 45.9128 297.413 44.8668C298.57 41.9219 299.194 38.5678 299.194 35.7992C299.194 33.2068 298.303 31.6889 295.45 31.6889C294.384 31.6889 293.311 31.9561 292.239 32.138C290.101 37.6752 286.76 44.9975 281.989 52.0526C281.501 52.8144 280.474 52.9452 279.76 52.4563C279.045 51.9674 278.824 50.9384 279.312 50.2221C283.413 44.1959 286.442 37.8969 288.535 32.7634C287.066 33.076 283.81 33.6559 281.938 33.8378C281.047 33.9288 280.242 33.3887 280.111 32.4962C279.975 31.6036 280.56 30.802 281.45 30.6656C284.258 30.2619 287.066 29.773 289.828 29.2784C290.674 26.9135 291.479 24.4973 292.103 22.0869C292.324 21.2398 293.26 20.6997 294.106 20.9271C294.951 21.1489 295.529 22.0414 295.308 22.8942C294.951 24.3666 294.281 26.5098 293.527 28.6531C294.162 28.5592 294.803 28.5135 295.444 28.5166C300.17 28.5166 302.484 31.3762 302.484 35.7935C302.484 39.0112 301.769 42.6724 300.476 46.0208L300.482 46.0322ZM313.449 44.9577C312.649 44.9577 311.889 44.2869 311.798 43.4853C311.532 41.3421 311.084 39.7332 310.193 37.8571C309.302 35.9811 308.054 33.8378 306.092 30.8475C305.604 30.0914 305.825 29.0624 306.58 28.5678C307.334 28.0789 308.27 28.3461 308.809 29.0567C310.545 31.4217 312.15 34.3267 313.177 36.47C314.158 38.6133 314.737 40.711 315.049 43.1215C315.185 44.105 314.425 44.9521 313.443 44.9521L313.449 44.9577Z" fill="white" stroke="white" stroke-linecap="round" stroke-linejoin="round"/>
<path d="M155.218 111.023C150.442 111.023 146.556 107.169 146.556 102.433V89.1243C146.556 88.1692 147.379 87.3676 148.355 87.3676C149.33 87.3676 150.107 88.1749 150.107 89.1243V102.433C150.107 105.281 152.399 107.595 155.213 107.595H172.945C175.759 107.595 178.051 105.281 178.051 102.433V89.1243C178.051 88.1692 178.873 87.3676 179.849 87.3676C180.824 87.3676 181.602 88.1749 181.602 89.1243V102.433C181.602 107.169 177.716 111.023 172.94 111.023H155.207H155.218ZM163.909 106.111C162.99 106.111 162.241 105.361 162.241 104.445V98.0782C160.494 99.9884 158.021 102.558 155.258 104.758C154.969 104.98 154.606 105.099 154.237 105.099C153.721 105.099 153.239 104.866 152.944 104.485C152.683 104.144 152.564 103.701 152.615 103.269C152.671 102.842 152.881 102.467 153.216 102.211C155.723 100.216 158.015 97.8736 159.201 96.6001H153.568C152.7 96.6001 151.991 95.8895 151.991 95.0197C151.991 94.1499 152.7 93.4392 153.568 93.4392H162.196V88.2772C162.196 87.362 162.996 86.5661 163.903 86.5661C164.811 86.5661 165.611 87.3676 165.611 88.2772V93.4392H174.726C175.594 93.4392 176.303 94.1499 176.303 95.0197C176.303 95.8895 175.594 96.6001 174.726 96.6001H168.759C170.994 98.8912 173.013 100.625 175.067 102.018C175.798 102.49 175.997 103.507 175.504 104.281C175.214 104.73 174.715 104.997 174.165 104.997C173.836 104.997 173.518 104.9 173.24 104.724C170.812 103.092 168.231 100.824 165.565 97.9759V104.44C165.565 105.361 164.816 106.105 163.897 106.105L163.909 106.111ZM169.967 92.5581C169.513 92.5581 169.065 92.3705 168.742 92.0521C168.418 91.7337 168.265 91.3187 168.282 90.8582C168.294 90.4148 168.475 89.9998 168.787 89.6814L170.841 87.7542C171.13 87.4643 171.527 87.2994 171.953 87.2994C172.378 87.2994 172.832 87.487 173.155 87.8054C173.467 88.1181 173.632 88.5388 173.615 88.9992C173.603 89.4427 173.422 89.8634 173.11 90.176L171.102 92.1033C170.807 92.3989 170.404 92.5638 169.967 92.5638V92.5581ZM157.556 92.45C157.102 92.45 156.648 92.2568 156.313 91.9157L154.663 90.2158C154.356 89.9088 154.192 89.4825 154.203 89.0277C154.214 88.5842 154.396 88.1692 154.708 87.8509C154.992 87.5666 155.383 87.4074 155.803 87.4074C156.274 87.4074 156.733 87.6007 157.073 87.9418L158.684 89.6473C158.991 89.9543 159.155 90.3807 159.138 90.8355C159.127 91.2789 158.945 91.6939 158.633 92.0123C158.35 92.2966 157.97 92.4557 157.561 92.4557L157.556 92.45ZM145.91 85.5257C144.974 85.5257 144.248 84.8151 144.248 83.8998C144.248 82.9845 145.025 82.1431 145.91 82.1431H151.554V75.6394C151.554 74.6616 152.359 73.8373 153.307 73.8373C154.254 73.8373 155.105 74.6787 155.105 75.6394V82.1431H162.292V72.4217C162.292 71.4666 163.098 70.665 164.045 70.665C164.992 70.665 165.843 71.4723 165.843 72.4217V75.1278H179.463C180.376 75.1278 181.17 75.9294 181.17 76.839C181.17 77.7486 180.371 78.5502 179.463 78.5502H165.843V82.1374H182.401C183.286 82.1374 184.063 82.9561 184.063 83.8941C184.063 84.8321 183.332 85.52 182.401 85.52H145.91V85.5257Z" fill="white"/>
<path d="M164.045 70.9494C164.845 70.9494 165.56 71.6202 165.56 72.4218V75.4121H179.463C180.217 75.4121 180.887 76.0829 180.887 76.839C180.887 77.5952 180.217 78.266 179.463 78.266H165.56V82.4217H182.401C183.156 82.4217 183.78 83.1381 183.78 83.8942C183.78 84.6503 183.156 85.2358 182.401 85.2358H145.91C145.155 85.2358 144.531 84.656 144.531 83.8942C144.531 83.1324 145.155 82.4217 145.91 82.4217H151.838V75.6338C151.838 74.8322 152.507 74.1159 153.307 74.1159C154.107 74.1159 154.821 74.8322 154.821 75.6338V82.4217H162.576V72.4161C162.576 71.6145 163.245 70.9437 164.045 70.9437M163.909 86.8447C164.663 86.8447 165.333 87.5155 165.333 88.2716V93.7179H174.732C175.075 93.7179 175.404 93.8544 175.647 94.0975C175.889 94.3406 176.025 94.6703 176.025 95.0141C176.025 95.3578 175.889 95.6875 175.647 95.9306C175.404 96.1737 175.075 96.3103 174.732 96.3103H168.095C170.188 98.499 172.418 100.551 174.914 102.251C175.538 102.655 175.668 103.502 175.271 104.127C175.021 104.514 174.602 104.713 174.171 104.713C173.904 104.713 173.637 104.639 173.399 104.485C169.876 102.12 166.802 98.9026 165.287 97.2483V104.44C165.287 105.196 164.663 105.821 163.903 105.821C163.143 105.821 162.519 105.196 162.519 104.44V97.3392C161.226 98.7662 158.333 101.938 155.077 104.531C154.833 104.718 154.532 104.815 154.231 104.815C153.823 104.815 153.42 104.644 153.165 104.309C152.717 103.729 152.808 102.882 153.386 102.433C155.973 100.381 158.423 97.8793 159.847 96.3159H153.562C153.219 96.3159 152.89 96.1794 152.648 95.9363C152.405 95.6932 152.269 95.3635 152.269 95.0198C152.269 94.676 152.405 94.3463 152.648 94.1032C152.89 93.8601 153.219 93.7236 153.562 93.7236H162.474V88.2773C162.474 87.5212 163.143 86.8504 163.898 86.8504M171.953 87.5837C172.31 87.5837 172.673 87.7315 172.951 88.0101C173.484 88.5445 173.439 89.4371 172.906 89.9771L170.903 91.8987C170.648 92.1545 170.308 92.2796 169.967 92.2796C169.598 92.2796 169.218 92.1318 168.94 91.8532C168.407 91.3188 168.453 90.4263 168.986 89.8862L171.034 87.9646C171.289 87.7088 171.618 87.5837 171.947 87.5837M179.86 87.652C180.66 87.652 181.329 88.3228 181.329 89.1244V102.433C181.329 107.032 177.54 110.739 172.951 110.739H155.218C150.629 110.739 146.84 107.032 146.84 102.433V89.1244C146.84 88.3228 147.555 87.652 148.355 87.652C149.155 87.652 149.824 88.3228 149.824 89.1244V102.433C149.824 105.423 152.229 107.879 155.213 107.879H172.945C175.929 107.879 178.334 105.423 178.334 102.433V89.1244C178.334 88.3228 179.049 87.652 179.849 87.652M155.803 87.6918C156.188 87.6918 156.58 87.8509 156.869 88.1409L158.475 89.8407C159.008 90.3751 158.962 91.2676 158.429 91.8077C158.185 92.0522 157.873 92.1659 157.556 92.1659C157.181 92.1659 156.801 92.0067 156.512 91.7168L154.861 90.0169C154.328 89.4825 154.373 88.59 154.906 88.0499C155.15 87.8055 155.474 87.6918 155.797 87.6918M164.045 70.3809C162.922 70.3809 162.009 71.2961 162.009 72.4218V81.8589H155.389V75.6395C155.389 74.5309 154.413 73.5531 153.307 73.5531C152.201 73.5531 151.27 74.5082 151.27 75.6395V81.8589H145.91C144.855 81.8589 143.964 82.7913 143.964 83.8998C143.964 85.0084 144.838 85.81 145.91 85.81H182.401C183.474 85.81 184.347 84.9516 184.347 83.8998C184.347 82.7913 183.457 81.8589 182.401 81.8589H166.127V78.8402H179.463C180.524 78.8402 181.454 77.9078 181.454 76.8447C181.454 75.7816 180.524 74.8493 179.463 74.8493H166.127V72.4275C166.127 71.3189 165.174 70.3865 164.045 70.3865V70.3809ZM163.909 86.2762C162.848 86.2762 161.918 87.2085 161.918 88.2716V93.1494H153.573C152.547 93.1494 151.713 93.9851 151.713 95.0141C151.713 96.0431 152.547 96.8788 153.573 96.8788H158.548C157.289 98.1977 155.253 100.227 153.04 101.984C152.847 102.133 152.685 102.32 152.564 102.533C152.443 102.745 152.366 102.98 152.337 103.223C152.269 103.729 152.411 104.252 152.723 104.65C153.074 105.105 153.642 105.378 154.243 105.378C154.68 105.378 155.099 105.236 155.434 104.98C157.964 102.967 160.25 100.648 161.963 98.8003V104.44C161.963 105.514 162.837 106.39 163.915 106.39C164.992 106.39 165.866 105.514 165.866 104.44V98.6866C168.373 101.307 170.801 103.417 173.093 104.957C173.427 105.173 173.802 105.281 174.182 105.281C174.829 105.281 175.418 104.963 175.759 104.434C176.337 103.53 176.105 102.336 175.231 101.774C173.348 100.494 171.493 98.9197 169.457 96.8788H174.749C175.776 96.8788 176.61 96.0431 176.61 95.0141C176.61 93.9851 175.776 93.1494 174.749 93.1494H165.917V88.2716C165.917 87.2085 164.987 86.2762 163.926 86.2762H163.909ZM171.953 87.0152C171.453 87.0152 170.988 87.2085 170.637 87.561L168.6 89.4655C167.812 90.2557 167.795 91.495 168.543 92.2455C168.918 92.6207 169.44 92.8367 169.967 92.8367C170.495 92.8367 170.954 92.6434 171.306 92.2909L173.303 90.3808C173.677 90.0056 173.887 89.5223 173.904 89.005C173.921 88.4706 173.728 87.9703 173.359 87.6008C172.988 87.2268 172.485 87.0144 171.958 87.0096L171.953 87.0152ZM179.86 87.0835C178.731 87.0835 177.778 88.0215 177.778 89.1244V102.433C177.778 105.122 175.611 107.311 172.957 107.311H155.224C152.564 107.311 150.402 105.122 150.402 102.433V89.1244C150.402 87.9987 149.489 87.0835 148.366 87.0835C147.243 87.0835 146.284 88.0215 146.284 89.1244V102.433C146.284 107.328 150.295 111.307 155.23 111.307H172.962C177.892 111.307 181.908 107.328 181.908 102.433V89.1244C181.908 87.9987 180.995 87.0835 179.871 87.0835H179.86ZM155.803 87.1233C155.309 87.1233 154.85 87.3109 154.509 87.652C154.146 88.0158 153.936 88.499 153.919 89.0164C153.902 89.5508 154.095 90.051 154.464 90.4206L156.109 92.1147C156.506 92.5127 157.034 92.7344 157.561 92.7344C158.043 92.7344 158.497 92.5468 158.832 92.2057C159.603 91.4325 159.626 90.1875 158.877 89.4371L157.283 87.7486C157.09 87.552 156.859 87.3956 156.605 87.2883C156.351 87.181 156.078 87.1249 155.803 87.1233ZM201.336 112.228C200.395 112.228 199.629 111.438 199.629 110.472V93.5303C198.381 95.8384 196.43 99.0902 193.633 102.825C193.476 103.03 193.274 103.195 193.043 103.31C192.812 103.424 192.558 103.484 192.3 103.485C191.937 103.485 191.585 103.371 191.279 103.155C190.519 102.558 190.377 101.472 190.956 100.739C195.97 94.076 198.364 88.607 199.147 86.5945H192.34C191.421 86.5945 190.672 85.8441 190.672 84.9288C190.672 84.0135 191.421 83.2574 192.34 83.2574H199.589V76.4923C199.243 76.5321 198.897 76.5775 198.546 76.6173C197.003 76.8049 195.403 77.0039 193.911 77.038H193.809C192.896 77.038 192.198 76.3786 192.147 75.4746C192.12 75.0324 192.27 74.5977 192.562 74.2654C192.854 73.9331 193.266 73.7302 193.707 73.7009C197.371 73.428 203.934 72.6151 206.731 72.1432C206.833 72.1262 206.93 72.1205 207.02 72.1205C207.854 72.1205 208.563 72.7345 208.665 73.5474C208.819 74.4286 208.212 75.2586 207.276 75.4235C206.294 75.6111 204.417 75.9238 203.055 76.0716V83.2574H208.161C209.08 83.2574 209.828 84.0079 209.828 84.9288C209.828 85.8498 209.08 86.5945 208.161 86.5945H203.055V89.5337C203.328 89.3347 203.662 89.221 204.02 89.221C204.513 89.221 204.984 89.4427 205.307 89.835L208.785 94.1727C209.357 94.8549 209.25 95.8725 208.524 96.4865C208.24 96.7253 207.894 96.856 207.52 96.856C207.02 96.856 206.544 96.6286 206.209 96.2307L203.055 92.2625V110.472C203.055 111.444 202.289 112.228 201.348 112.228H201.336ZM225.042 112.183C224.089 112.183 223.289 111.376 223.289 110.426V99.3176L211.479 102.439C211.332 102.473 211.19 102.49 211.048 102.49C210.259 102.49 209.613 101.99 209.437 101.245C209.216 100.313 209.743 99.4143 210.628 99.2039L223.289 95.8213V73.2632C223.289 72.3081 224.095 71.5065 225.042 71.5065C225.989 71.5065 226.795 72.3138 226.795 73.2632V94.8663L230.096 94.0192C230.244 93.9851 230.386 93.968 230.522 93.968C231.31 93.968 231.957 94.4683 232.133 95.213C232.235 95.6565 232.178 96.1056 231.963 96.4865C231.741 96.8788 231.378 97.1516 230.942 97.254L226.795 98.3569V110.42C226.795 111.376 225.989 112.177 225.042 112.177V112.183ZM217.43 92.2398C217.032 92.2398 216.635 92.0976 216.312 91.8475L212.296 88.5843C211.938 88.3001 211.712 87.9021 211.661 87.4644C211.609 87.0266 211.74 86.5889 212.024 86.225C212.347 85.8157 212.829 85.5769 213.351 85.5769C213.737 85.5769 214.117 85.7134 214.429 85.9521L218.445 89.2153C218.802 89.4996 219.029 89.9032 219.075 90.358C219.126 90.8071 218.995 91.2563 218.712 91.6201C218.4 92.0124 217.934 92.2398 217.424 92.2398H217.43ZM218.224 82.1716C217.798 82.1716 217.401 82.0181 217.101 81.7395L213.186 78.3058C212.477 77.6463 212.409 76.5207 213.033 75.8442C213.374 75.4746 213.856 75.2643 214.361 75.2643C214.786 75.2643 215.183 75.4178 215.484 75.6964L219.404 79.1756C220.113 79.8351 220.181 80.9152 219.557 81.5917C219.216 81.9613 218.734 82.1716 218.229 82.1716H218.224Z" fill="white"/>
<path d="M225.042 71.796C225.842 71.796 226.511 72.4669 226.511 73.2685V95.2411L230.164 94.3031C230.284 94.2746 230.403 94.2633 230.522 94.2633C231.146 94.2633 231.707 94.6498 231.855 95.2866C232.031 96.0427 231.634 96.8045 230.873 96.9864L226.506 98.1461V110.426C226.506 111.227 225.836 111.898 225.036 111.898C224.237 111.898 223.567 111.227 223.567 110.426V98.9477L211.405 102.165C211.286 102.194 211.167 102.205 211.048 102.205C210.424 102.205 209.862 101.819 209.715 101.182C209.539 100.42 209.936 99.664 210.696 99.4821L223.573 96.0427V73.2685C223.573 72.4669 224.242 71.796 225.042 71.796ZM207.015 72.4043C207.746 72.4043 208.297 72.9387 208.376 73.5868C208.512 74.3486 207.973 75.0138 207.219 75.1502C206.283 75.3264 204.19 75.6846 202.76 75.821V83.547H208.149C208.904 83.547 209.533 84.1723 209.533 84.9341C209.533 85.6959 208.909 86.3156 208.149 86.3156H202.76V90.3349C202.863 90.0892 203.037 89.8797 203.259 89.7329C203.482 89.5862 203.742 89.5088 204.008 89.5106C204.394 89.5106 204.791 89.6754 205.08 90.0222L208.558 94.3542C209.045 94.9341 208.915 95.7812 208.336 96.2758C208.092 96.4804 207.803 96.5771 207.514 96.5771C207.111 96.5771 206.703 96.3895 206.419 96.054L202.766 91.4548V110.477C202.766 111.279 202.142 111.949 201.342 111.949C200.542 111.949 199.918 111.279 199.918 110.477V92.3929C198.494 95.1615 196.356 98.7317 193.412 102.666C193.128 103.03 192.72 103.211 192.306 103.211C192.011 103.211 191.71 103.121 191.455 102.933C190.831 102.444 190.7 101.546 191.188 100.92C196.401 93.9961 198.852 88.2371 199.567 86.3156H192.345C191.585 86.3156 190.961 85.6902 190.961 84.9341C190.961 84.178 191.585 83.547 192.345 83.547H199.879V76.1792C197.916 76.4009 195.823 76.7136 193.905 76.7591H193.815C193.06 76.7591 192.482 76.236 192.436 75.4629C192.391 74.7011 192.969 74.0359 193.729 73.9905C197.337 73.7233 203.889 72.9217 206.788 72.4271C206.873 72.4157 206.952 72.41 207.032 72.41M214.355 75.5482C214.69 75.5482 215.024 75.6619 215.285 75.9063L219.205 79.3912C219.784 79.9256 219.874 80.8182 219.341 81.4037C219.046 81.7221 218.632 81.8926 218.224 81.8926C217.889 81.8926 217.554 81.7789 217.293 81.5345L213.374 78.095C212.795 77.5607 212.704 76.6226 213.237 76.0428C213.532 75.7244 213.947 75.5538 214.355 75.5538M213.362 85.8608C213.674 85.8608 213.992 85.9631 214.264 86.1735L218.275 89.431C218.899 89.9199 218.989 90.8124 218.496 91.4378C218.224 91.7846 217.838 91.9495 217.435 91.9495C217.106 91.9495 216.771 91.8357 216.493 91.614L212.483 88.3565C211.859 87.8676 211.768 87.0149 212.262 86.3895C212.54 86.0313 212.948 85.8494 213.368 85.8494M225.042 71.2275C223.919 71.2275 223.006 72.1428 223.006 73.2685V95.6049L210.549 98.9307C209.522 99.1751 208.909 100.215 209.165 101.307C209.369 102.182 210.129 102.768 211.053 102.768C211.218 102.768 211.383 102.751 211.541 102.711L223.011 99.6811V110.42C223.011 111.546 223.925 112.461 225.048 112.461C226.171 112.461 227.084 111.546 227.084 110.42V98.5782L231.027 97.5321C231.277 97.4735 231.513 97.3627 231.718 97.207C231.923 97.0513 232.094 96.8541 232.218 96.6282C232.467 96.1905 232.536 95.6618 232.416 95.1501C232.212 94.2746 231.452 93.6891 230.527 93.6891C230.363 93.6891 230.198 93.7061 230.04 93.7459L227.084 94.5077V73.2685C227.084 72.1428 226.171 71.2275 225.048 71.2275H225.042ZM207.015 71.8358C206.907 71.8358 206.793 71.8472 206.686 71.8643C203.889 72.3418 197.337 73.1491 193.678 73.422C192.618 73.4845 191.801 74.4168 191.863 75.497C191.92 76.5601 192.737 77.3276 193.809 77.3276H193.934C195.42 77.2935 197.025 77.0945 198.58 76.9069C198.823 76.8785 199.067 76.85 199.306 76.8159V82.9785H192.34C191.268 82.9785 190.388 83.854 190.388 84.9341C190.388 86.0143 191.262 86.8841 192.34 86.8841H198.727C197.814 89.1354 195.431 94.3315 190.729 100.574C190.059 101.426 190.224 102.683 191.097 103.371C191.472 103.638 191.88 103.769 192.3 103.769C192.907 103.769 193.474 103.49 193.854 103.007C196.299 99.7436 198.097 96.8556 199.345 94.6328V110.471C199.345 111.597 200.242 112.512 201.336 112.512C202.431 112.512 203.327 111.597 203.327 110.471V93.0751L205.971 96.4008C206.374 96.8727 206.93 97.1399 207.508 97.1399C207.951 97.1399 208.359 96.9921 208.694 96.7021C209.539 95.9858 209.664 94.792 208.983 93.979L205.517 89.6584C205.131 89.1979 204.587 88.9364 204.003 88.9364C203.764 88.9364 203.537 88.9819 203.322 89.0615V86.8784H208.143C209.216 86.8784 210.095 86.0029 210.095 84.9284C210.095 83.854 209.221 82.9728 208.143 82.9728H203.322V76.327C204.661 76.1735 206.385 75.8836 207.315 75.7017C208.399 75.5084 209.108 74.5419 208.926 73.4959C208.801 72.5465 207.979 71.8302 207.003 71.8302L207.015 71.8358ZM214.355 74.9797C213.771 74.9797 213.215 75.2241 212.818 75.6505C212.092 76.4407 212.165 77.7483 212.982 78.5101L216.913 81.9609C217.254 82.2792 217.724 82.4555 218.218 82.4555C218.802 82.4555 219.358 82.211 219.755 81.7846C220.487 80.9944 220.408 79.7323 219.591 78.9705L215.66 75.4799C215.314 75.1616 214.848 74.9797 214.355 74.9797ZM213.362 85.2923C212.755 85.2923 212.188 85.5652 211.814 86.0484C211.485 86.4691 211.331 86.9807 211.388 87.4924C211.445 88.0097 211.712 88.4759 212.131 88.8113L216.136 92.0632C216.516 92.3645 216.976 92.5236 217.435 92.5236C218.031 92.5236 218.581 92.2564 218.944 91.796C219.625 90.9261 219.483 89.6641 218.626 88.9876L214.622 85.7357C214.259 85.4458 213.81 85.2923 213.362 85.2923ZM242.882 107.947C242.207 107.947 241.595 107.595 241.243 106.998C240.988 106.566 240.931 106.054 241.078 105.559C241.22 105.076 241.538 104.673 241.969 104.417C248.538 100.761 253.915 96.4406 258.431 91.2104C260.501 88.817 262.305 86.3554 263.927 83.6948L253.785 83.8597C251.958 85.9461 249.338 88.3679 245.543 91.4776C245.218 91.7347 244.816 91.8731 244.403 91.8699C243.824 91.8699 243.268 91.6083 242.916 91.1649C242.612 90.7765 242.468 90.2863 242.514 89.7948C242.565 89.2889 242.797 88.8397 243.183 88.5327C246.161 86.1507 249.258 83.5242 251.737 80.4032C253.257 78.4759 253.62 77.2423 253.864 76.1394C254.04 75.2923 254.829 74.6783 255.731 74.6783C255.861 74.6783 255.992 74.6897 256.116 74.7181C256.599 74.8205 257.013 75.099 257.279 75.5027C257.546 75.912 257.637 76.4009 257.54 76.8841C257.291 78.0268 256.939 79.0331 256.445 80.0166L267.24 79.846C267.944 79.846 268.573 80.2099 268.919 80.8125C269.254 81.4037 269.254 82.0973 268.919 82.6829L268.437 83.4901C266.985 85.929 264.79 89.6129 261.267 93.672C256.434 99.232 250.546 103.956 243.767 107.714C243.495 107.862 243.189 107.936 242.888 107.936L242.882 107.947Z" fill="white"/>
<path d="M255.725 74.9795C255.833 74.9795 255.946 74.9908 256.054 75.0136C256.899 75.1898 257.438 75.9971 257.257 76.8441C257.035 77.8731 256.678 79.0329 255.963 80.3291L267.235 80.1528C268.483 80.1528 269.282 81.4945 268.658 82.5633C267.235 84.9282 264.96 88.993 261.04 93.5069C257.12 98.0152 251.595 103.063 243.62 107.486C243.382 107.611 243.126 107.674 242.877 107.674C242.326 107.674 241.788 107.384 241.481 106.861C241.033 106.105 241.345 105.121 242.105 104.672C249.723 100.431 254.937 95.6957 258.635 91.4092C260.796 88.9201 262.734 86.2454 264.427 83.416L253.643 83.5923C251.862 85.6446 249.275 88.0607 245.356 91.2727C245.078 91.4945 244.737 91.6025 244.391 91.6025C243.915 91.6025 243.438 91.3921 243.126 91.0055C242.593 90.3347 242.678 89.3057 243.347 88.7713C246.422 86.3154 249.497 83.6775 251.947 80.5963C253.462 78.6747 253.864 77.424 254.131 76.2188C254.284 75.4797 254.982 74.9795 255.719 74.9795M255.725 74.411C254.693 74.411 253.791 75.1216 253.581 76.1051C253.348 77.1682 252.991 78.3677 251.51 80.2438C249.048 83.3364 245.968 85.9572 243.001 88.3222C242.559 88.6747 242.281 89.192 242.23 89.7776C242.173 90.3518 242.338 90.9146 242.689 91.3523C242.896 91.6058 243.157 91.8102 243.452 91.9508C243.747 92.0913 244.07 92.1646 244.397 92.1653C244.879 92.1653 245.344 92.0061 245.713 91.7105C249.463 88.6349 252.078 86.2244 253.91 84.1494L263.411 83.9902C261.864 86.4679 260.127 88.821 258.215 91.0283C253.723 96.2358 248.368 100.528 241.839 104.166C240.778 104.792 240.403 106.122 240.999 107.14C241.396 107.81 242.117 108.231 242.882 108.231C243.234 108.231 243.58 108.146 243.892 107.981C250.71 104.2 256.621 99.4592 261.477 93.8765C265.017 89.8003 267.218 86.105 268.676 83.6548C268.846 83.3705 269.005 83.1034 269.152 82.8532C269.549 82.1767 269.549 81.3694 269.158 80.6929C268.965 80.3534 268.687 80.0713 268.35 79.8755C268.013 79.6797 267.63 79.5772 267.24 79.5786L256.899 79.7435C257.302 78.868 257.597 77.9698 257.818 76.9635C257.937 76.4007 257.83 75.8322 257.518 75.3604C257.207 74.8907 256.724 74.5635 256.173 74.4508C256.026 74.4207 255.876 74.4055 255.725 74.4053V74.411ZM286.55 109.59C285.795 109.59 285.109 109.118 284.803 108.39C284.389 107.361 284.831 106.304 285.846 105.878C287.134 105.298 288.393 104.598 289.585 103.803C292.461 101.881 294.559 99.8514 295.824 97.7707C296.999 95.8605 297.566 93.9674 297.566 91.9777V76.5258C297.566 76.0237 297.765 75.5422 298.119 75.1872C298.473 74.8321 298.954 74.6327 299.455 74.6327C299.956 74.6327 300.436 74.8321 300.791 75.1872C301.145 75.5422 301.344 76.0237 301.344 76.5258V91.9777C301.344 94.6894 300.561 97.3841 299.075 99.7662C297.895 101.659 296.256 103.473 294.202 105.15C292.149 106.827 289.562 108.424 287.276 109.431C287.043 109.533 286.799 109.584 286.55 109.584V109.59ZM286.981 96.5086C285.943 96.5086 285.092 95.6616 285.092 94.6155V80.1471C285.092 79.1068 285.937 78.254 286.981 78.254C288.025 78.254 288.824 79.084 288.824 80.1471V94.6155C288.824 95.6786 288.013 96.5086 286.981 96.5086Z" fill="white"/>
<path d="M299.455 74.9228C300.345 74.9228 301.06 75.6391 301.06 76.5317V91.9836C301.06 94.8886 300.17 97.4753 298.831 99.6186C297.492 101.762 295.711 103.547 294.021 104.934C291.615 106.901 288.983 108.373 287.157 109.175C286.958 109.266 286.748 109.306 286.544 109.306C285.926 109.306 285.33 108.919 285.064 108.283C284.706 107.39 285.109 106.497 285.954 106.139C287.248 105.559 288.541 104.843 289.743 104.042C291.882 102.615 294.469 100.557 296.068 97.9244C297.135 96.1848 297.85 94.2178 297.85 91.9836V76.5317C297.85 75.6391 298.564 74.9228 299.455 74.9228ZM286.981 78.5385C287.871 78.5385 288.541 79.2548 288.541 80.1474V94.6157C288.541 95.5083 287.871 96.2246 286.981 96.2246C286.09 96.2246 285.376 95.5083 285.376 94.6157V80.1474C285.376 79.2548 286.09 78.5385 286.981 78.5385ZM299.455 74.3543C298.258 74.3543 297.282 75.3321 297.282 76.5317V91.9836C297.282 93.9165 296.726 95.7641 295.586 97.6231C294.338 99.6697 292.268 101.665 289.426 103.564C288.249 104.347 287.01 105.034 285.722 105.616C284.587 106.094 284.071 107.333 284.536 108.487C284.888 109.329 285.676 109.869 286.544 109.869C286.833 109.869 287.117 109.806 287.384 109.687C289.687 108.675 292.302 107.055 294.372 105.366C296.448 103.666 298.11 101.83 299.307 99.9142C300.822 97.4867 301.622 94.7408 301.622 91.9779V76.526C301.622 75.3265 300.646 74.3486 299.449 74.3486L299.455 74.3543ZM286.981 77.97C285.784 77.97 284.808 78.9478 284.808 80.1474V94.6157C284.808 95.8153 285.784 96.7931 286.981 96.7931C288.178 96.7931 289.108 95.838 289.108 94.6157V80.1474C289.108 78.9251 288.172 77.97 286.981 77.97ZM318.628 102.671C317.641 102.671 316.824 101.864 316.773 100.835C316.722 99.7834 317.556 98.8454 318.6 98.7942L350.814 97.1854H350.905C351.926 97.1854 352.8 98.004 352.845 99.0159C352.868 99.5219 352.692 100.017 352.346 100.409C351.994 100.801 351.523 101.028 351.018 101.057L318.713 102.666H318.622L318.628 102.671ZM324.499 86.0143C323.45 86.0143 322.616 85.2241 322.565 84.178C322.514 83.1434 323.387 82.1883 324.437 82.1371L343.865 81.2389C344.881 81.2389 345.709 82.0462 345.766 83.0751C345.817 84.1269 344.983 85.0649 343.939 85.1161L324.601 86.0086H324.499V86.0143Z" fill="white"/>
<path d="M343.871 81.5294C344.728 81.5294 345.442 82.2287 345.488 83.0928C345.533 83.9854 344.818 84.787 343.928 84.8324L324.59 85.725H324.499C323.603 85.725 322.894 85.0655 322.849 84.1616C322.803 83.2691 323.563 82.4618 324.454 82.422L343.792 81.5294H343.871ZM350.911 97.4702C351.767 97.4702 352.527 98.1695 352.567 99.0336C352.612 99.9262 351.898 100.728 351.007 100.773L318.702 102.382H318.622C317.766 102.382 317.097 101.683 317.051 100.819C317.006 99.9262 317.721 99.1246 318.611 99.0791L350.826 97.4702H350.905M343.871 80.9609H343.763L324.425 81.8535C323.2 81.916 322.219 82.9848 322.281 84.19C322.338 85.3896 323.291 86.2935 324.499 86.2935H324.613L343.95 85.4009C345.147 85.3384 346.112 84.2696 346.049 83.0644C345.993 81.8819 345.034 80.9609 343.865 80.9609H343.871ZM350.911 96.9017H350.803L318.588 98.5106C317.392 98.5731 316.433 99.6419 316.49 100.847C316.546 102.03 317.488 102.951 318.628 102.951H318.736L351.041 101.342C351.625 101.313 352.164 101.046 352.567 100.603C352.964 100.154 353.168 99.5908 353.14 99.0052C353.083 97.8455 352.085 96.9017 350.916 96.9017H350.911ZM371.343 110.165C370.77 110.165 370.231 109.881 369.931 109.42C369.454 108.675 369.704 107.595 370.464 107.106C382.904 99.2951 385.457 90.2162 385.979 86.6744C386.075 85.8557 386.756 85.2588 387.595 85.2588C387.663 85.2588 387.737 85.2588 387.805 85.2702C388.248 85.3214 388.639 85.5374 388.911 85.8842C389.184 86.231 389.308 86.663 389.257 87.1064C388.832 90.2332 386.359 101.097 372.24 109.909C371.979 110.074 371.667 110.165 371.343 110.165ZM369.636 95.6624C368.944 95.6624 368.286 95.2417 368.036 94.6391C367.446 93.2747 366.573 91.9046 365.733 90.5743L365.251 89.8125C365.018 89.4487 364.939 89.0109 365.03 88.5789C365.12 88.1468 365.376 87.783 365.739 87.5442C366.017 87.368 366.334 87.2713 366.663 87.2713C367.214 87.2713 367.713 87.5385 368.002 87.9876C369.103 89.6647 370.237 91.4782 371.054 93.3429C371.281 93.8489 371.247 94.4117 370.958 94.8836C370.674 95.344 370.186 95.6397 369.647 95.6624H369.636ZM377.481 93.4282C376.761 93.4282 376.086 92.9279 375.876 92.2457C375.433 90.7847 374.599 89.2042 373.851 87.8341C373.635 87.4532 373.578 86.9814 373.697 86.555C373.817 86.1457 374.083 85.8103 374.452 85.617C374.69 85.4919 374.957 85.4237 375.229 85.4237C375.836 85.4237 376.409 85.7534 376.704 86.2651C377.623 87.8284 378.61 90.1081 379.001 91.3191C379.154 91.7966 379.075 92.3082 378.791 92.7176C378.496 93.1439 378.026 93.4054 377.498 93.4282H377.487H377.481Z" fill="white"/>
<path d="M387.595 85.5428C387.652 85.5428 387.714 85.5428 387.771 85.5542C388.526 85.6451 389.064 86.3103 388.974 87.0721C388.486 90.6877 385.678 101.182 372.086 109.67C371.86 109.818 371.599 109.886 371.343 109.886C370.884 109.886 370.43 109.67 370.175 109.272C369.772 108.647 369.999 107.754 370.623 107.351C383.5 99.2664 385.82 89.7554 386.262 86.7196C386.342 86.0203 386.92 85.5485 387.601 85.5485M375.229 85.702C375.728 85.702 376.21 85.9635 376.454 86.3955C377.345 87.9134 378.326 90.1477 378.729 91.3984C378.996 92.2454 378.372 93.0982 377.481 93.138C376.902 93.138 376.324 92.7343 376.142 92.1545C375.694 90.6821 374.849 89.0732 374.095 87.6917C373.737 87.0664 373.919 86.2193 374.582 85.8612C374.787 85.7531 375.008 85.702 375.229 85.702ZM366.669 87.5553C367.1 87.5553 367.52 87.7543 367.77 88.1408C368.881 89.8407 369.999 91.6258 370.799 93.4563C371.202 94.3489 370.578 95.3324 369.642 95.3779C369.108 95.3779 368.53 95.0652 368.303 94.5308C367.588 92.8765 366.476 91.2278 365.495 89.6644C365.092 89.0391 365.274 88.192 365.898 87.7884C366.136 87.6349 366.408 87.561 366.669 87.561M387.595 84.9743C386.608 84.9743 385.808 85.6792 385.695 86.6457C385.184 90.1306 382.654 99.1186 370.317 106.862C369.891 107.135 369.579 107.584 369.46 108.09C369.335 108.607 369.426 109.147 369.698 109.573C370.044 110.113 370.68 110.449 371.349 110.449C371.729 110.449 372.092 110.341 372.398 110.142C386.614 101.268 389.115 90.2955 389.541 87.146C389.603 86.6173 389.462 86.1113 389.138 85.7077C388.98 85.5076 388.784 85.3411 388.561 85.2181C388.338 85.0951 388.092 85.018 387.839 84.9913C387.76 84.98 387.675 84.9743 387.595 84.9743ZM375.229 85.1335C374.911 85.1335 374.594 85.2131 374.316 85.3609C374.1 85.477 373.909 85.6355 373.755 85.8269C373.601 86.0183 373.487 86.2387 373.419 86.4751C373.278 86.9754 373.34 87.5269 373.601 87.976C374.338 89.3233 375.167 90.8924 375.598 92.325C375.842 93.1266 376.636 93.7122 377.475 93.7122C378.116 93.6781 378.667 93.3768 379.013 92.8765C379.347 92.3932 379.438 91.7906 379.262 91.2278C378.859 89.9714 377.878 87.7145 376.936 86.1113C376.596 85.5087 375.932 85.1335 375.218 85.1335H375.229ZM366.669 86.9868C366.283 86.9868 365.915 87.0948 365.591 87.3052C365.16 87.5837 364.865 88.0101 364.757 88.5161C364.65 89.022 364.74 89.5337 365.018 89.9657C365.172 90.2102 365.336 90.466 365.495 90.7218C366.334 92.0408 367.202 93.4052 367.781 94.7525C368.07 95.4518 368.836 95.9464 369.636 95.9464C370.294 95.918 370.867 95.5712 371.202 95.0311C371.536 94.4853 371.576 93.8088 371.309 93.2233C370.487 91.3472 369.347 89.5223 368.235 87.8282C367.9 87.3052 367.31 86.9868 366.663 86.9868H366.669ZM405.43 107.947C404.755 107.947 404.142 107.595 403.79 106.998C403.535 106.566 403.478 106.054 403.626 105.56C403.768 105.077 404.085 104.673 404.516 104.417C411.085 100.762 416.463 96.441 420.978 91.2108C423.049 88.8174 424.853 86.3558 426.475 83.6952L416.332 83.86C414.506 85.9464 411.885 88.3682 408.09 91.478C407.766 91.7351 407.364 91.8735 406.95 91.8702C406.371 91.8702 405.816 91.6087 405.464 91.1653C405.16 90.7769 405.016 90.2867 405.061 89.7952C405.112 89.2892 405.345 88.8401 405.73 88.5331C408.709 86.1511 411.806 83.5246 414.285 80.4035C415.805 78.4763 416.168 77.2427 416.412 76.1398C416.588 75.2927 417.376 74.6787 418.278 74.6787C418.409 74.6787 418.539 74.6901 418.664 74.7185C419.146 74.8208 419.56 75.0994 419.827 75.503C420.093 75.9124 420.184 76.4013 420.088 76.8845C419.838 78.0272 419.486 79.0334 418.993 80.0169L429.788 79.8464C430.491 79.8464 431.121 80.2102 431.467 80.8128C431.802 81.4041 431.802 82.0977 431.467 82.6832L430.985 83.4905C429.533 85.9294 427.337 89.6133 423.815 93.6724C418.982 99.2323 413.093 103.957 406.315 107.714C406.042 107.862 405.736 107.936 405.435 107.936L405.43 107.947Z" fill="white"/>
<path d="M418.278 74.9795C418.386 74.9795 418.499 74.9908 418.607 75.0136C419.452 75.1898 419.991 75.9971 419.81 76.8441C419.588 77.8731 419.231 79.0329 418.516 80.3291L429.788 80.1528C431.036 80.1528 431.835 81.4945 431.211 82.5633C429.788 84.9282 427.513 88.993 423.593 93.507C419.673 98.0152 414.148 103.063 406.173 107.486C405.935 107.611 405.679 107.674 405.43 107.674C404.879 107.674 404.341 107.384 404.034 106.861C403.586 106.105 403.898 105.121 404.658 104.672C412.276 100.431 417.49 95.6957 421.188 91.4092C423.349 88.9201 425.287 86.2454 426.98 83.416L416.196 83.5923C414.415 85.6446 411.828 88.0607 407.909 91.2727C407.631 91.4945 407.29 91.6025 406.944 91.6025C406.468 91.6025 405.991 91.3921 405.679 91.0055C405.146 90.3347 405.231 89.3057 405.9 88.7713C408.975 86.3154 412.05 83.6775 414.5 80.5963C416.015 78.6747 416.417 77.424 416.684 76.2188C416.837 75.4797 417.535 74.9795 418.272 74.9795M418.278 74.411C417.246 74.411 416.344 75.1216 416.134 76.1051C415.901 77.1682 415.544 78.3677 414.063 80.2438C411.601 83.3364 408.521 85.9572 405.554 88.3222C405.112 88.6747 404.834 89.192 404.783 89.7776C404.726 90.3518 404.891 90.9146 405.242 91.3523C405.449 91.6058 405.71 91.8102 406.005 91.9508C406.3 92.0913 406.623 92.1646 406.95 92.1653C407.432 92.1653 407.897 92.0061 408.266 91.7105C412.015 88.6349 414.631 86.2244 416.463 84.1494L425.964 83.9902C424.417 86.4679 422.68 88.821 420.768 91.0283C416.276 96.2358 410.921 100.528 404.392 104.166C403.331 104.792 402.956 106.122 403.552 107.14C403.949 107.81 404.67 108.231 405.435 108.231C405.787 108.231 406.133 108.146 406.445 107.981C413.263 104.2 419.174 99.4592 424.03 93.8765C427.57 89.8003 429.771 86.105 431.229 83.6548C431.399 83.3706 431.557 83.1034 431.705 82.8532C432.102 82.1767 432.102 81.3694 431.711 80.6929C431.518 80.3534 431.24 80.0713 430.903 79.8755C430.566 79.6797 430.183 79.5772 429.793 79.5786L419.452 79.7435C419.855 78.868 420.15 77.9698 420.371 76.9635C420.49 76.4007 420.383 75.8322 420.071 75.3604C419.76 74.8907 419.277 74.5635 418.726 74.4508C418.579 74.4207 418.429 74.4055 418.278 74.4053V74.411Z" fill="white"/>
</g>
<defs>
<linearGradient id="paint0_linear_41_10" x1="11.6118" y1="62.2512" x2="118.326" y2="68.636" gradientUnits="userSpaceOnUse">
<stop stop-color="#20D3DB"/>
<stop offset="0.41" stop-color="#318FBF"/>
<stop offset="0.46" stop-color="#237BB1"/>
<stop offset="0.57" stop-color="#477BB4"/>
<stop offset="0.72" stop-color="#4D5D9B"/>
<stop offset="1" stop-color="#7D5D9D"/>
</linearGradient>
<clipPath id="clip0_41_10">
<rect width="432" height="131" fill="white"/>
</clipPath>
</defs>
</svg>
